<?xml version="1.0" encoding="UTF-8"?>
<svg width="85px" height="85px" viewBox="0 0 85 85" version="1.1" xmlns="http://www.w3.org/2000/svg" xmlns:xlink="http://www.w3.org/1999/xlink">
    <g id="Page-1" stroke="none" stroke-width="1" fill="none" fill-rule="evenodd">
        <g id="Logo" transform="translate(-22.000000, -22.000000)">
            <g id="MeYup" transform="translate(22.000000, 22.000000)">
                <path d="M19.3833591,6.83072966 C26.0369756,2.50977988 33.9753926,-2.30926389e-14 42.5,-2.30926389e-14 C49.4758633,-2.30926389e-14 56.0591849,1.68067129 61.867135,4.65918429 L53.7164821,9.32855894 C48.9437438,6.57526954 43.4058339,5 37.5,5 C31.5223602,5 25.9216454,6.61380819 21.1097749,9.42950542 L19.3833591,6.83072966 L19.3833591,6.83072966 Z" id="路径" fill="#F2BD42"></path>
                <path d="M53.7164821,9.32855894 L61.867135,4.65918429 C75.6015397,11.702651 85,26.0037615 85,42.5 C85,56.8690655 77.8691072,69.5726218 66.9531002,77.2648903 L57.4039672,63.1939987 C65.0676685,57.2486481 70,47.9503279 70,37.5 C70,25.4565795 63.4492334,14.9431725 53.7164776,9.32855632 L53.7164821,9.32855894 Z" id="路径" fill="#D8503F"></path>
                <path d="M57.4039672,63.1939987 L66.9531002,77.2648903 C60.0376325,82.1380674 51.6030363,85 42.5,85 C38.6149572,85 34.851668,84.4787111 31.2762624,83.5022634 L30.9898544,69.3478211 C33.0932137,69.775482 35.2703874,70 37.5,70 C44.9989264,70 51.904663,67.4602521 57.4039672,63.1939987 L57.4039672,63.1939987 Z" id="路径" fill="#4F87EB"></path>
                <path d="M31.8253571,69.5062892 L31.8253571,83.6482548 C13.520012,78.9130571 -7.10542736e-15,62.2854126 -7.10542736e-15,42.5 C-7.10542736e-15,35.4254507 1.72855981,28.7546282 4.78637149,22.8868403 L8.46272102,22.8868454 C6.24756772,27.2798572 5,32.244236 5,37.5 C5,53.5135175 16.5815291,66.822024 31.8253571,69.5062892 L31.8253571,69.5062892 Z" id="路径" fill="#529F51"></path>
                <path d="M19.3833591,6.83072966 L21.1097749,9.42950542 C15.7036608,12.5929282 11.2932588,17.2734255 8.46272102,22.8868454 L4.78636883,22.8868454 C8.18927145,16.3568454 13.2383774,10.8213651 19.3833591,6.83072966 L19.3833591,6.83072966 Z" id="路径" fill="#F2BD42"></path>
                <circle id="Eye" fill="#E5DD49" cx="30" cy="27" r="6"></circle>
            </g>
        </g>
    </g>
</svg>