<svg>
<g id="meyup">
        <circle id="Eye" fill="#E5DD49" cx="8.84210526" cy="7.32631579" r="1.51578947"></circle>
        <path d="M16.4148794,4.80617321 L18.9819309,2.23912169 C22.0202908,4.41632283 24,7.97696848 24,12 C24,15.3760008 22.6058817,18.4263879 20.3619404,20.6068658 L16.4685302,16.6156652 C17.997788,15.1244459 18.9473684,13.0415372 18.9473684,10.7368421 C18.9473684,8.40531333 17.9755473,6.30076554 16.4148794,4.80617321 Z" id="合并形状" fill="#4E87EA"></path>
        <path d="M4.83060116,5.03340555 L3.38896455,3.64235268 C5.56972252,1.39589659 8.6218467,0 12,0 C14.649952,0 17.0992842,0.858955261 19.0847633,2.31363239 L16.477272,4.8665559 C14.9969031,3.41873219 12.9710901,2.52631579 10.7368421,2.52631579 C8.41798758,2.52631579 6.32365301,3.48759997 4.83060116,5.03340555 Z" id="合并形状" fill="#D8503F"></path>
        <path d="M16.5425609,16.5425609 L20.4852814,20.4852814 C18.3137085,22.6568542 15.3137085,24 12,24 C7.90023995,24 4.2806715,21.9440554 2.11606497,18.8069364 L4.70574046,16.3081267 C6.20571924,17.9311072 8.35260041,18.9473684 10.7368421,18.9473684 C13.0041163,18.9473684 15.0567479,18.028374 16.5425609,16.5425609 Z" id="合并形状" fill="#57A55D"></path>
        <path d="M4.80617321,16.4148794 L2.23912169,18.9819309 C0.829669394,17.0149913 0,14.6043855 0,12 C0,8.6862915 1.34314575,5.6862915 3.51471863,3.51471863 L4.93112327,4.93112327 C3.44531025,6.41693629 2.52631579,8.46956787 2.52631579,10.7368421 C2.52631579,12.9398618 3.39395975,14.9402324 4.80617321,16.4148794 Z" id="合并形状" fill="#F2BD42"></path>
    </g>
</svg>